<svg xmlns="http://www.w3.org/2000/svg" viewBox="0 0 128 128" width="128px" height="128px"><path fill="#fff" d="M104.8,66.2h-3.7c0.2-1.2,0.3-2.3,0.3-3.5c0-11.7-9.2-21.2-20.5-21.2c-6.1,0-11.6,2.8-15.4,7.3v45.7h39.3c7.5,0,13.7-6.3,13.7-14.1C118.5,72.6,112.4,66.2,104.8,66.2z"/><path fill="#ffdbab" d="M97.8,78h-3.7c0.2-1.2,0.3-2.3,0.3-3.5c0-11.7-9.2-21.2-20.5-21.2c-3,0-5.8,0.7-8.3,1.9v39.3h39.3c2.4,0,4.6-0.6,6.6-1.7c0-0.2,0-0.4,0-0.6C111.4,84.3,105.3,78,97.8,78z"/><path fill="#444b54" d="M104.8 97.5H65.6c-1.7 0-3-1.3-3-3s1.3-3 3-3h39.3c5.9 0 10.7-5 10.7-11.1 0-6.1-4.8-11.1-10.7-11.1h-3.7c-.9 0-1.7-.4-2.3-1.1s-.8-1.6-.7-2.4c.2-1.1.3-2.1.3-3 0-10-7.8-18.2-17.5-18.2-5 0-9.7 2.3-13.1 6.2-1.1 1.3-3 1.4-4.2.3-1.3-1.1-1.4-3-.3-4.2 4.5-5.3 10.9-8.3 17.7-8.3 13 0 23.5 10.8 23.5 24.2 0 .2 0 .4 0 .5h.4c9.2 0 16.7 7.7 16.7 17.1C121.5 89.8 114 97.5 104.8 97.5zM53.8 97.5c-1.7 0-3-1.3-3-3V52.3c0-1.7 1.3-3 3-3s3 1.3 3 3v42.2C56.8 96.1 55.5 97.5 53.8 97.5zM42 97.5c-1.7 0-3-1.3-3-3V54.7c0-1.7 1.3-3 3-3s3 1.3 3 3v39.8C45 96.1 43.7 97.5 42 97.5zM30.3 97.5c-1.7 0-3-1.3-3-3v-28c0-1.7 1.3-3 3-3s3 1.3 3 3v28C33.3 96.1 31.9 97.5 30.3 97.5zM18.5 85.7c-1.7 0-3-1.3-3-3v-4.5c0-1.7 1.3-3 3-3s3 1.3 3 3v4.5C21.5 84.4 20.2 85.7 18.5 85.7zM18.5 97.5c-.8 0-1.6-.3-2.1-.9-.6-.6-.9-1.3-.9-2.1s.3-1.6.9-2.1c.1-.1.3-.3.5-.4.2-.1.3-.2.5-.3.2-.1.4-.1.6-.2 1-.2 2 .1 2.7.8.1.1.3.3.4.5.1.2.2.3.3.5.1.2.1.4.2.6 0 .2.1.4.1.6 0 .8-.3 1.6-.9 2.1C20.1 97.1 19.3 97.5 18.5 97.5z"/></svg>